<?xml version="1.0" encoding="UTF-8"?>
<svg xmlns="http://www.w3.org/2000/svg" xmlns:xlink="http://www.w3.org/1999/xlink" width="96pt" height="128pt" viewBox="0 0 96 128" version="1.1">
<g id="surface1">
<path style=" stroke:none;fill-rule:nonzero;fill:rgb(0%,0%,0%);fill-opacity:1;" d="M 43.066406 125.417969 C 6.742188 72.757812 0 67.351562 0 48 C 0 21.492188 21.492188 0 48 0 C 74.507812 0 96 21.492188 96 48 C 96 67.351562 89.257812 72.757812 52.933594 125.417969 C 50.550781 128.859375 45.449219 128.859375 43.066406 125.417969 Z M 48 68 C 59.046875 68 68 59.046875 68 48 C 68 36.953125 59.046875 28 48 28 C 36.953125 28 28 36.953125 28 48 C 28 59.046875 36.953125 68 48 68 Z M 48 68 "/>
</g>
</svg>
